<?xml version="1.0" encoding="UTF-8"?>
<!--Generator: Apple Native CoreSVG 326-->
<!DOCTYPE svg
PUBLIC "-//W3C//DTD SVG 1.1//EN"
       "http://www.w3.org/Graphics/SVG/1.1/DTD/svg11.dtd">
<svg version="1.1" xmlns="http://www.w3.org/2000/svg" xmlns:xlink="http://www.w3.org/1999/xlink" viewBox="0 0 821.289 1047.36">
 <g>
  <rect height="1047.36" opacity="0" width="821.289" x="0" y="0"/>
  <path d="M225.586 282.715L596.191 282.715C613.281 282.715 625.977 269.531 625.977 252.441C625.977 235.84 613.281 222.656 596.191 222.656L225.586 222.656C208.008 222.656 195.312 235.84 195.312 252.441C195.312 269.531 208.008 282.715 225.586 282.715ZM225.586 453.125L596.191 453.125C613.281 453.125 625.977 439.941 625.977 422.852C625.977 406.25 613.281 393.066 596.191 393.066L225.586 393.066C208.008 393.066 195.312 406.25 195.312 422.852C195.312 439.941 208.008 453.125 225.586 453.125ZM225.586 623.535L400.879 623.535C418.457 623.535 431.152 610.84 431.152 594.238C431.152 576.66 418.457 563.477 400.879 563.477L225.586 563.477C208.008 563.477 195.312 576.66 195.312 594.238C195.312 610.84 208.008 623.535 225.586 623.535ZM0 894.043C0 996.094 50.293 1046.88 151.367 1046.88L669.922 1046.88C770.996 1046.88 821.289 996.094 821.289 894.043L821.289 153.32C821.289 51.7578 770.996 0 669.922 0L151.367 0C50.293 0 0 51.7578 0 153.32ZM78.6133 892.578L78.6133 154.785C78.6133 105.957 104.492 78.6133 155.273 78.6133L666.016 78.6133C716.797 78.6133 742.676 105.957 742.676 154.785L742.676 892.578C742.676 941.406 716.797 968.262 666.016 968.262L155.273 968.262C104.492 968.262 78.6133 941.406 78.6133 892.578Z" fill="black" fill-opacity="0.85"/>
 </g>
</svg>
